<svg width="49" height="47" viewBox="0 0 49 47" fill="none" xmlns="http://www.w3.org/2000/svg">
<path d="M24.5 0L8.5 6.5L0 23.5L24.5 6.5L49 23.5L40.5 6.5L24.5 0Z" fill="#C4C4C4"/>
<path d="M24.5 46.5L8.5 40L0 23L24.5 40L49 23L40.5 40L24.5 46.5Z" fill="#C4C4C4"/>
<path d="M31.34 17.54L29.86 18.12V28.28L31.34 28.9V30H26.66V28.9L28.14 28.28V23.88H20.3V28.28L21.78 28.9V30H17.1V28.9L18.58 28.28V18.12L17.1 17.54V16.4H21.78V17.54L20.3 18.12V22.44H28.14V18.12L26.66 17.54V16.4H31.34V17.54Z" fill="black"/>
<path d="M31.34 17.54L31.5224 18.0055L31.84 17.8811V17.54H31.34ZM29.86 18.12L29.6776 17.6545L29.36 17.7789V18.12H29.86ZM29.86 28.28H29.36V28.6126L29.6668 28.7412L29.86 28.28ZM31.34 28.9H31.84V28.5674L31.5332 28.4388L31.34 28.9ZM31.34 30V30.5H31.84V30H31.34ZM26.66 30H26.16V30.5H26.66V30ZM26.66 28.9L26.4668 28.4388L26.16 28.5674V28.9H26.66ZM28.14 28.28L28.3332 28.7412L28.64 28.6126V28.28H28.14ZM28.14 23.88H28.64V23.38H28.14V23.88ZM20.3 23.88V23.38H19.8V23.88H20.3ZM20.3 28.28H19.8V28.6126L20.1068 28.7412L20.3 28.28ZM21.78 28.9H22.28V28.5674L21.9732 28.4388L21.78 28.9ZM21.78 30V30.5H22.28V30H21.78ZM17.1 30H16.6V30.5H17.1V30ZM17.1 28.9L16.9068 28.4388L16.6 28.5674V28.9H17.1ZM18.58 28.28L18.7732 28.7412L19.08 28.6126V28.28H18.58ZM18.58 18.12H19.08V17.7789L18.7624 17.6545L18.58 18.12ZM17.1 17.54H16.6V17.8811L16.9176 18.0055L17.1 17.54ZM17.1 16.4V15.9H16.6V16.4H17.1ZM21.78 16.4H22.28V15.9H21.78V16.4ZM21.78 17.54L21.9624 18.0055L22.28 17.8811V17.54H21.78ZM20.3 18.12L20.1176 17.6545L19.8 17.7789V18.12H20.3ZM20.3 22.44H19.8V22.94H20.3V22.44ZM28.14 22.44V22.94H28.64V22.44H28.14ZM28.14 18.12H28.64V17.7789L28.3224 17.6545L28.14 18.12ZM26.66 17.54H26.16V17.8811L26.4776 18.0055L26.66 17.54ZM26.66 16.4V15.9H26.16V16.4H26.66ZM31.34 16.4H31.84V15.9H31.34V16.4ZM31.1576 17.0745L29.6776 17.6545L30.0424 18.5855L31.5224 18.0055L31.1576 17.0745ZM29.36 18.12V28.28H30.36V18.12H29.36ZM29.6668 28.7412L31.1468 29.3612L31.5332 28.4388L30.0532 27.8188L29.6668 28.7412ZM30.84 28.9V30H31.84V28.9H30.84ZM31.34 29.5H26.66V30.5H31.34V29.5ZM27.16 30V28.9H26.16V30H27.16ZM26.8532 29.3612L28.3332 28.7412L27.9468 27.8188L26.4668 28.4388L26.8532 29.3612ZM28.64 28.28V23.88H27.64V28.28H28.64ZM28.14 23.38H20.3V24.38H28.14V23.38ZM19.8 23.88V28.28H20.8V23.88H19.8ZM20.1068 28.7412L21.5868 29.3612L21.9732 28.4388L20.4932 27.8188L20.1068 28.7412ZM21.28 28.9V30H22.28V28.9H21.28ZM21.78 29.5H17.1V30.5H21.78V29.5ZM17.6 30V28.9H16.6V30H17.6ZM17.2932 29.3612L18.7732 28.7412L18.3868 27.8188L16.9068 28.4388L17.2932 29.3612ZM19.08 28.28V18.12H18.08V28.28H19.08ZM18.7624 17.6545L17.2824 17.0745L16.9176 18.0055L18.3976 18.5855L18.7624 17.6545ZM17.6 17.54V16.4H16.6V17.54H17.6ZM17.1 16.9H21.78V15.9H17.1V16.9ZM21.28 16.4V17.54H22.28V16.4H21.28ZM21.5976 17.0745L20.1176 17.6545L20.4824 18.5855L21.9624 18.0055L21.5976 17.0745ZM19.8 18.12V22.44H20.8V18.12H19.8ZM20.3 22.94H28.14V21.94H20.3V22.94ZM28.64 22.44V18.12H27.64V22.44H28.64ZM28.3224 17.6545L26.8424 17.0745L26.4776 18.0055L27.9576 18.5855L28.3224 17.6545ZM27.16 17.54V16.4H26.16V17.54H27.16ZM26.66 16.9H31.34V15.9H26.66V16.9ZM30.84 16.4V17.54H31.84V16.4H30.84Z" fill="black"/>
</svg>
