<svg width="71" height="67" viewBox="0 0 71 67" fill="none" xmlns="http://www.w3.org/2000/svg">
<ellipse cx="35.5" cy="33.5" rx="35.5" ry="33.5" fill="white"/>
<path d="M35.5 10L19.5 16.5L11 33.5L35.5 16.5L60 33.5L51.5 16.5L35.5 10Z" fill="#9EC5A3"/>
<rect x="42.1763" y="42.7446" width="6.39867" height="19.3388" transform="rotate(-45.1776 42.1763 42.7446)" fill="#9EC5A3"/>
<path d="M35.5 56.5L19.5 50L11 33L35.5 50L60 33L51.5 50L35.5 56.5Z" fill="#9EC5A3"/>
<path d="M42.34 27.54L40.86 28.12V38.28L42.34 38.9V40H37.66V38.9L39.14 38.28V33.88H31.3V38.28L32.78 38.9V40H28.1V38.9L29.58 38.28V28.12L28.1 27.54V26.4H32.78V27.54L31.3 28.12V32.44H39.14V28.12L37.66 27.54V26.4H42.34V27.54Z" fill="black"/>
<path d="M42.34 27.54L42.5224 28.0055L42.84 27.8811V27.54H42.34ZM40.86 28.12L40.6776 27.6545L40.36 27.7789V28.12H40.86ZM40.86 38.28H40.36V38.6126L40.6668 38.7412L40.86 38.28ZM42.34 38.9H42.84V38.5674L42.5332 38.4388L42.34 38.9ZM42.34 40V40.5H42.84V40H42.34ZM37.66 40H37.16V40.5H37.66V40ZM37.66 38.9L37.4668 38.4388L37.16 38.5674V38.9H37.66ZM39.14 38.28L39.3332 38.7412L39.64 38.6126V38.28H39.14ZM39.14 33.88H39.64V33.38H39.14V33.88ZM31.3 33.88V33.38H30.8V33.88H31.3ZM31.3 38.28H30.8V38.6126L31.1068 38.7412L31.3 38.28ZM32.78 38.9H33.28V38.5674L32.9732 38.4388L32.78 38.9ZM32.78 40V40.5H33.28V40H32.78ZM28.1 40H27.6V40.5H28.1V40ZM28.1 38.9L27.9068 38.4388L27.6 38.5674V38.9H28.1ZM29.58 38.28L29.7732 38.7412L30.08 38.6126V38.28H29.58ZM29.58 28.12H30.08V27.7789L29.7624 27.6545L29.58 28.12ZM28.1 27.54H27.6V27.8811L27.9176 28.0055L28.1 27.54ZM28.1 26.4V25.9H27.6V26.4H28.1ZM32.78 26.4H33.28V25.9H32.78V26.4ZM32.78 27.54L32.9624 28.0055L33.28 27.8811V27.54H32.78ZM31.3 28.12L31.1176 27.6545L30.8 27.7789V28.12H31.3ZM31.3 32.44H30.8V32.94H31.3V32.44ZM39.14 32.44V32.94H39.64V32.44H39.14ZM39.14 28.12H39.64V27.7789L39.3224 27.6545L39.14 28.12ZM37.66 27.54H37.16V27.8811L37.4776 28.0055L37.66 27.54ZM37.66 26.4V25.9H37.16V26.4H37.66ZM42.34 26.4H42.84V25.9H42.34V26.4ZM42.1576 27.0745L40.6776 27.6545L41.0424 28.5855L42.5224 28.0055L42.1576 27.0745ZM40.36 28.12V38.28H41.36V28.12H40.36ZM40.6668 38.7412L42.1468 39.3612L42.5332 38.4388L41.0532 37.8188L40.6668 38.7412ZM41.84 38.9V40H42.84V38.9H41.84ZM42.34 39.5H37.66V40.5H42.34V39.5ZM38.16 40V38.9H37.16V40H38.16ZM37.8532 39.3612L39.3332 38.7412L38.9468 37.8188L37.4668 38.4388L37.8532 39.3612ZM39.64 38.28V33.88H38.64V38.28H39.64ZM39.14 33.38H31.3V34.38H39.14V33.38ZM30.8 33.88V38.28H31.8V33.88H30.8ZM31.1068 38.7412L32.5868 39.3612L32.9732 38.4388L31.4932 37.8188L31.1068 38.7412ZM32.28 38.9V40H33.28V38.9H32.28ZM32.78 39.5H28.1V40.5H32.78V39.5ZM28.6 40V38.9H27.6V40H28.6ZM28.2932 39.3612L29.7732 38.7412L29.3868 37.8188L27.9068 38.4388L28.2932 39.3612ZM30.08 38.28V28.12H29.08V38.28H30.08ZM29.7624 27.6545L28.2824 27.0745L27.9176 28.0055L29.3976 28.5855L29.7624 27.6545ZM28.6 27.54V26.4H27.6V27.54H28.6ZM28.1 26.9H32.78V25.9H28.1V26.9ZM32.28 26.4V27.54H33.28V26.4H32.28ZM32.5976 27.0745L31.1176 27.6545L31.4824 28.5855L32.9624 28.0055L32.5976 27.0745ZM30.8 28.12V32.44H31.8V28.12H30.8ZM31.3 32.94H39.14V31.94H31.3V32.94ZM39.64 32.44V28.12H38.64V32.44H39.64ZM39.3224 27.6545L37.8424 27.0745L37.4776 28.0055L38.9576 28.5855L39.3224 27.6545ZM38.16 27.54V26.4H37.16V27.54H38.16ZM37.66 26.9H42.34V25.9H37.66V26.9ZM41.84 26.4V27.54H42.84V26.4H41.84Z" fill="black"/>
</svg>
